<?xml version="1.0" encoding="UTF-8" standalone="no"?>
<!DOCTYPE svg PUBLIC "-//W3C//DTD SVG 1.1//EN" "http://www.w3.org/Graphics/SVG/1.1/DTD/svg11.dtd">
<svg width="100%" height="100%" viewBox="0 0 300 300" version="1.1" xmlns="http://www.w3.org/2000/svg" xmlns:xlink="http://www.w3.org/1999/xlink" xml:space="preserve" xmlns:serif="http://www.serif.com/" style="fill-rule:evenodd;clip-rule:evenodd;">
    <rect x="25.393" y="25.297" width="249.865" height="250.825" style="fill:white;"/>
    <path d="M26.537,25.48C42.792,24.901 52.322,26.247 72.277,24.73M25.555,25.893C41.645,26.307 60.264,24.662 76.115,24.496M73.048,23.689C73.509,35.952 77.8,49.243 75.35,74.941M75.106,26.36C75.994,44.821 73.415,63.612 74.205,75.272M75.332,74.156C62.202,75.272 49.165,76.119 25.19,72.105M73.601,75.801C55.858,73.27 35.078,75.364 24.891,74.802M27.513,77.905C23.294,61.209 25.619,41.606 26.052,27.164M25.983,74.547C24.371,60.165 25.482,44.448 24.525,24.777" style="fill:none;stroke:black;stroke-width:1px;"/>
    <path d="M27.084,76.375C41.444,77.13 60.511,75.137 76.288,77.819M25.253,75.551C41.722,76.426 56.927,75.486 76.117,74.016M73.685,74.482C74.147,96.009 74.607,112.865 72.695,126.179M74.362,76.01C74.555,94.085 72.896,111.144 73.791,123.97M73.234,122.423C59.018,128.109 43.35,123.666 27.542,122.244M74.563,123.886C58.205,126.656 40.468,125.28 24.016,124.192M27.005,125.072C24.744,111.923 25.806,95.149 25.156,75.096M25.066,125.868C24.593,106.913 25.041,89.834 25.162,75.143" style="fill:none;stroke:black;stroke-width:1px;"/>
    <path d="M26.365,125.905C32.886,127.321 43.552,121.988 76.671,125.871M24.265,125.278C35.905,125.53 44.315,126.051 75.885,124.139M72.748,125.89C74.921,136.692 71.547,150.937 75.185,176.64M74.312,125.521C73.597,138.196 74.608,154.9 75.26,175.161M72.049,175.694C64.866,176.891 52.448,174.861 23.3,173.158M73.774,175.234C62.506,175.692 51.744,175.376 24.051,175.273M23.825,173.866C24.085,159.509 26.124,141.107 24.047,126.725M25.811,176.43C24.536,162.014 23.962,150.738 24.711,126.008" style="fill:none;stroke:black;stroke-width:1px;"/>
    <path d="M26.771,174.928C34.824,176.75 44.376,172.567 75.552,177.46M26.07,174.235C44.643,175.304 62.732,173.491 75.037,175.634M72.889,173.241C75.457,194.847 72.007,208.938 75.811,223.733M74.38,175.112C74.123,186.682 73.959,198.232 74.355,223.921M76.931,224.044C62.586,226.551 46.483,222.264 22.881,225.206M73.799,224.34C57.866,225.444 38.982,224.911 23.702,223.543M23.965,226.908C25.871,211.203 25.494,191.073 23.761,174.836M24.494,223.694C24.321,211.922 26.124,200.232 24.965,176.207" style="fill:none;stroke:black;stroke-width:1px;"/>
    <path d="M25.178,223.263C34.916,226.595 46.207,225.235 75.566,225.696M24.364,224.152C37.891,226.804 49.484,224.701 73.618,224.859M72.933,226.478C74.24,242.264 72.816,261.623 73.636,273.212M75.146,223.901C75.961,244.339 73.862,260.866 74.879,275.656M73.426,274.268C65.236,275.427 53.791,278.094 25.106,273.638M76.495,275.398C63.142,276.014 51.633,273.805 24.029,276.049M24.711,274.686C27.943,256.671 26.466,240.327 24.852,226.699M25.391,274.356C24.386,258.817 24.893,244.229 24.953,224.028" style="fill:none;stroke:black;stroke-width:1px;"/>
    <path d="M73.543,24.51C88.747,24.06 97.262,27.584 122.028,25.941M74.324,25.466C88.071,25.771 99.6,23.088 124.834,23.814M126.868,24.494C126.278,37.953 127.108,49.2 124.851,75.176M124.059,23.534C125.069,39.591 124.455,56.885 124.246,75.227M126.27,73.602C111.31,71.551 92.756,75.759 77.171,73.993M125.277,74.701C106.031,75.159 85.193,74.707 76.483,75.994M75.762,75.353C74.002,61.995 73.636,41.598 73.761,22.455M74.956,76.161C73.746,65.425 73.902,54.452 74.569,25.396" style="fill:none;stroke:black;stroke-width:1px;"/>
    <g>
        <path d="M77.187,75.033C76.306,75.321 75.988,75.614 74.95,77.781M77.014,74.904C76.336,75.885 75.808,76.684 74.994,77.53M81.597,74.375C80.596,75.483 77.42,79.011 75.277,82.893M81.575,75.559C80.03,78.808 77.224,81.883 74.784,84.207M89.504,74.589C82.704,79.885 78.492,80.523 75.818,86.815M86.59,75.754C85.433,77.034 82.154,82.425 73.815,90.634M91.949,75.799C87.791,82.073 81.472,87.665 72.533,94.075M91.53,74.104C89.047,77.992 84.166,84.542 74.882,94.95M96.973,75.079C92.561,80.182 85.381,88.788 75.96,99.319M97.656,74.44C90.179,84.755 81.997,94.818 74.887,100.224M100.906,72.199C96.725,88.256 84.912,96.625 72.284,108.897M102.801,76.142C95.682,84.377 86.693,95.469 74.293,108.452M107.428,72.58C99.611,90.578 83.566,100.528 73.564,116.837M108.23,74.383C98.254,86.159 89.616,97.825 75.246,113.711M111.915,76.662C98.168,94.11 87.158,108.492 73.437,121.879M112.684,76.129C101.126,92.036 86.599,108.058 76.391,121.349M122.382,77.094C105.989,90.13 89.257,105.867 76.61,122.676M119.202,75.572C102.829,94.391 85.79,111.23 75.5,124.574M122.256,77.324C110.547,95.797 88.421,114.107 80.318,123.129M123.851,74.338C107.951,95.356 90.104,112.583 82.402,124.902M126.859,78.44C115.22,94.983 99.934,111.862 83.586,123.664M124.035,81.324C110.191,95.961 96.555,111.559 87.402,124.044M124.882,88.185C118.631,92.549 108.851,103.44 90.951,125.375M125.346,87.573C114.799,97.711 106.878,109.416 91.396,124.692M126.843,91.966C113.529,103.013 106.294,113.891 96.657,123.807M125.306,94.236C116.903,104.791 106.942,115.154 98.214,123.72M124.297,98.041C119.153,109.637 112.682,113.686 104.984,127.205M123.655,99.708C118.141,106.464 110.913,116.369 101.861,124.522M124.083,102.533C116.821,114.23 108.872,118.837 109.339,125.4M126.383,106.647C119.618,110.907 116.385,114.458 109.226,125.232M123.271,111.164C121.057,115.455 118.581,117.549 110.809,124.104M125.248,111.872C122.481,114.289 116.878,119.587 113.802,125.26M124.566,118.692C124.16,119.199 121.782,121.309 119.218,125.532M125.453,116.88C124.205,119.182 122.073,121.148 118.635,124.936M125.229,123.545C124.504,123.681 124.012,124.584 123.511,124.733M124.923,123.406C124.776,123.805 124.43,124.233 123.707,125.059" style="fill:none;stroke:rgb(43,172,255);stroke-width:1px;"/>
        <path d="M72.371,73.517C93.816,74.632 108.493,76.928 127.636,75.01M73.932,75.652C92.987,73.438 107.765,74.275 124.239,76.338M122.447,73.116C124.382,90.341 128.474,101.953 126.978,123.362M126.415,75.194C124.974,92.904 126.854,107.337 124.246,124.219M122.135,126.785C108.156,124.984 88.058,126.768 75.667,123.789M125.624,126.206C111.067,126.58 98.429,124.182 75.432,125.225M72.919,127.876C75.098,110.914 73.549,98.873 73.732,72.293M75.046,125.063C75.744,106.999 76.351,89.838 74.103,75.389" style="fill:none;stroke:black;stroke-width:1px;"/>
    </g>
    <g>
        <path d="M77.473,125.4C76.239,125.987 75.849,126.594 74.946,127.19M76.94,124.836C76.097,125.627 75.532,126.595 75.192,127.165M82.7,123.826C78.961,127.916 77.463,129.905 73.587,132.797M81.608,124.956C80.676,127.124 79.206,130.172 74.406,132.614M84.999,124.011C85.851,128.122 78.276,134.194 75.647,140.74M86.976,126.256C83.087,129.946 79.761,134.767 74.496,139.339M95.18,127.286C87.746,132.507 79.259,137.598 75.96,145.732M93.597,125.074C87.649,131.048 80.687,137.791 73.941,145.922M96.082,124.872C88.738,135.693 84.531,141.206 75.756,153.509M98.242,124.432C90.864,133.241 84.198,142.216 75.943,151.64M106.215,125.794C94.172,140.39 82.885,148.01 77.787,158.498M104.954,126.252C96.444,134.644 87.202,143.039 76.259,158.977M107.071,126.225C100.4,136.801 91.203,143.183 72.598,165.688M110.131,124.634C100.87,134.507 93.672,142.969 76.395,164.88M113.454,124.494C99.296,140.006 89.452,154.519 74.556,169.017M114.467,126.216C102.616,138.255 93.159,149.331 75.644,168.929M121.709,127.855C106.727,138.832 95.04,152.949 76.658,176.219M119.011,125.975C106.594,141.043 91.713,155.849 76.973,174.303M126.744,123.7C111.039,143.719 98.221,158.423 83.927,173.311M123.429,123.928C106.753,143.932 90.577,161.941 81.531,175.829M127.758,130.74C113.607,141.506 105.321,154.195 85.038,172.946M125.511,129.408C113.831,144.885 102.923,158.262 86.244,173.714M126.132,139.236C114.089,151.369 100.965,161.938 94.293,174.238M124.26,135.657C116.297,146.177 109.991,157.047 91.278,174.276M127.093,141.141C114.298,150.984 103.589,163.88 98.858,174.766M125.204,142.208C117.103,150.126 112.017,157.842 97.274,176.228M122.483,147.275C115.558,155.885 111.747,167.322 105.236,172.789M126.041,150.368C116.567,159.101 109.759,168.102 103.358,175.408M125.647,156.929C120.666,163.226 114.208,166.748 107.039,173.888M126.489,155.226C120.555,161.074 114.981,167.768 108.723,174.001M123.538,160.744C122.639,167.219 116.459,169.514 112.272,176.022M125.423,162.318C121.458,164.76 119.181,169.828 113.118,175.2M125.78,167.111C123.169,169.242 122.429,172.379 118.556,174.912M124.51,166.811C123.258,170.14 120.936,172.024 118.15,174.765M124.957,173.357C124.596,174.12 124.184,174.491 123.932,175.301M125.057,173.579C124.756,173.702 124.398,173.973 123.693,175.116" style="fill:none;stroke:rgb(43,172,255);stroke-width:1px;"/>
        <path d="M77.732,126.038C91.65,123.676 102.034,122.825 125.368,122.841M73.524,123.58C90.151,125.418 105.42,124.152 126.347,125.112M125.314,122.321C126.091,140.447 126.448,161.715 124.032,173.52M124.18,126.098C125.417,141.663 125.446,158.391 124.74,175.313M124.268,172.072C105.046,172.313 88.455,175.231 73.013,175.894M123.501,174.196C107.062,173.439 90.619,175.491 75.984,176.332M77.251,174.98C76.397,160.963 75.92,149.531 76.082,126.47M75.106,176.389C75.186,156.119 76.162,140.417 75.222,126.334" style="fill:none;stroke:black;stroke-width:1px;"/>
    </g>
    <g>
        <path d="M76.661,175.05C76.036,175.519 76.138,176.544 74.779,177.427M76.971,175.224C76.178,175.722 75.745,176.819 74.941,177.199M80.808,175.892C81.158,179.752 77.323,182.669 73.778,183.013M82.992,175.171C80.616,176.737 79.277,178.315 75.749,184.262M90.32,175.065C84.896,179.178 79.739,184.285 73.308,191.317M87.547,176.296C84.702,177.229 83.563,181.581 75.889,189.78M94.307,174.866C87.581,182.444 85.437,187.402 77.647,195.06M93.862,174.755C87.68,180.057 83.956,186.012 75.777,196.803M96.459,172.887C92.463,180.232 84.932,191.257 77.977,200.862M97.089,174.457C89.746,185.496 81.82,194.17 73.887,202.383M103.835,174.358C94.873,188.172 86.349,197.38 73.63,205.594M103.756,176.061C93.234,186.552 85.327,195.62 75.557,208.979M110.875,175.126C95.441,191.208 84.174,199.192 76.022,211.73M107.363,176.463C100.774,184.702 91.596,195.047 74.14,214.408M113.63,177.768C99.427,190.018 87.628,203.052 75.944,222.655M114.219,173.593C104.698,186.765 91.894,200.316 75.496,218.695M119.919,173.212C98.685,192.352 82.398,216.152 75.742,226.901M118.76,173.997C102.166,193.629 84.786,215.429 75.899,224.081M123.618,176.145C114.329,186.937 100.713,197.635 79.077,223.878M125.007,173.972C114.17,186.331 103.713,199.58 80.432,226.074M126.303,181.557C109.174,193.888 96.615,212.49 85.09,224.53M125.9,181.365C108.765,198.442 95.897,213.185 85.593,225.022M127.32,185.464C118.938,192.998 109.023,203.007 89.006,227.084M124.514,185.529C111.844,202.186 101.105,212.915 90.939,225.761M123.484,192.096C118.922,202.026 112.98,208.048 97.042,222.595M125.81,194.073C115.081,203.338 109.406,213.113 95.815,225.208M122.346,200.593C120.742,205.112 113.88,211.376 101.05,227.891M125.164,200.444C116.171,209.523 110.718,218.858 102.245,223.651M127.075,207.043C118.868,209.548 113.685,216.738 109.772,225.864M126.446,203.86C119.45,209.209 117.269,214.859 108.166,225.989M124.291,211.296C120.668,214.624 117.059,219.382 114.215,224.526M125.863,212.291C121.967,215.834 117.068,219.566 114.036,226.229M123.873,216.413C122.379,220.792 119.401,222.952 119.034,225.346M125.204,217.224C124.412,218.91 122.281,220.199 117.799,225.17M125.037,223.619C124.506,223.631 124.142,224.18 123.598,225.03M124.88,223.472C124.779,223.919 124.38,224.303 123.69,225.015" style="fill:none;stroke:rgb(43,172,255);stroke-width:1px;"/>
        <path d="M76.297,176.101C90.502,175.115 107.394,173.862 126.496,172.983M73.533,174.434C90.606,173.151 107.24,173.741 124.143,175.011M126.224,172.938C122.924,190.187 122.917,198.475 123.545,223.759M124.207,173.858C125.558,189.083 126.279,204.862 124.082,226.394M123.093,224.428C108.52,226.418 96.089,225.707 73.524,225.497M126.45,225.425C114.58,225.103 101.6,223.09 74.719,224.438M77.27,222.149C74.285,208.874 75.923,189.016 73.118,173.868M76.042,224.682C74.309,209.113 74.749,192.181 73.524,175.423" style="fill:none;stroke:black;stroke-width:1px;"/>
    </g>
    <path d="M76.765,225.854C90.355,223.433 106.671,226.408 122.734,224.597M74.869,224.935C85.639,225.492 97.683,224.606 125.276,223.775M127.657,227.693C122.994,238.054 123.556,252.38 126.196,277.294M125.908,225.983C125.916,236.974 125.715,245.854 123.548,275.485M127.954,275.512C109.25,276.983 92.863,272.851 75.751,275.741M124.326,274.277C109.596,274.658 98.224,275.639 75.948,273.763M74.013,277.108C76.506,262.177 74.783,247.27 72.17,225.398M74.839,275.537C75.79,262.209 74.775,246.942 75.15,224.01" style="fill:none;stroke:black;stroke-width:1px;"/>
    <path d="M126.568,24.755C143.831,27.385 161.083,25.023 176.862,22.714M125.278,24.782C137.029,24.933 145.44,23.836 176.31,25.706M172.676,23.243C175.318,45.318 177.851,63.982 176.313,72.061M176.273,26.11C175.595,36.67 176.282,49.434 174.385,75.407M176.729,72.202C164.493,77.375 153.701,72.447 125.225,72.062M175.341,75.28C157.912,76.112 139.924,74.638 125.069,76.202M123.007,73.019C125.338,65.112 127.334,53.757 127.136,24.742M124.3,75.808C126.099,55.412 124.131,35.175 126.428,25.948" style="fill:none;stroke:black;stroke-width:1px;"/>
    <g>
        <path d="M127.155,74.784C126.246,75.72 126.235,75.87 125.18,77.748M126.956,75.029C126.457,75.555 125.94,76.133 125.027,77.141M131.828,75.596C130.589,77.311 127.897,81.189 124.368,83.809M132.76,74.861C130.299,77.819 127.037,81.378 124.939,84.094M140.241,74.847C135.227,78.844 130.755,85.448 124.049,86.995M136.449,76.069C136.376,77.361 131.143,82.577 125.936,89.542M144.176,74.668C137.213,82.826 128.734,88.055 126.302,94.049M143.183,75.528C137.674,78.791 135.695,84.78 124.965,96.934M146.627,73.247C143.648,78.856 136.4,89.786 125.395,101.232M147.812,74.52C139.404,82.6 133.951,93.879 125.865,101.494M155.176,72.403C139.763,86.53 128.313,97.852 122.619,110.748M154.043,74.528C146.953,84.236 136.703,91.075 125.652,108.172M155.936,76.204C148.061,84.32 142.8,94.535 124.443,114.923M160.147,74.43C149.866,85.71 144.67,91.999 125.291,114.149M164.451,75.252C149.618,91.697 135.119,112.471 122.849,117.127M165.488,74.81C151.675,88.809 142.191,101.125 125.03,119.3M169.474,75.59C154.72,92.598 144.245,104.94 127.706,124.432M169.628,76.446C158.53,88.232 147.932,100.557 127.447,126.218M173.16,75.492C161.215,87.045 147.291,105.951 129.634,126.24M174.208,75.249C164.402,89.452 152.81,103.14 129.9,124.339M175.515,79.334C165.759,93.535 151.678,111.653 136.93,124.513M175.678,81.268C162.197,95.681 149.315,111.281 137.759,125.686M172.385,84.093C166.594,100.645 157.559,111.732 141.159,127.847M173.79,87.315C163.269,96.658 152.922,110.115 141.129,126.409M174.163,92.134C165.539,100.496 161.092,111.468 149.699,123.793M173.981,94.246C167.239,100.452 160.082,110.389 147.428,125.889M174.67,99.802C165,107.101 159.23,118.855 151.524,123.619M174.54,97.898C168.773,104.975 163.474,109.428 151.603,124.786M174.774,103.321C170.835,111.975 161.699,118.325 160.207,126.633M174.067,104.567C171.248,111.214 165.966,118.148 157.96,125.844M175.705,112.104C168.951,117.913 167.11,122.623 161.471,127.727M176.178,111.784C172.259,114.008 168.706,117.94 161.839,123.963M173.838,118.726C172.637,120.565 171.043,124.198 169.445,124.289M174.751,117.461C172.393,120.582 170.177,123.961 168.529,124.955M175.017,123.324C174.505,124.351 174.09,124.376 173.586,125.22M174.964,123.352C174.773,124.003 174.307,124.222 173.716,124.956" style="fill:none;stroke:rgb(43,172,255);stroke-width:1px;"/>
        <path d="M125.061,74.764C140.86,75.263 157.212,76.387 172.601,73.073M124.259,76.382C144.796,73.798 164.796,75.421 174.739,74.532M175.481,74.799C174.357,88.256 172.223,102.505 176.209,126.695M176.143,76.468C174.229,90.822 175.522,107.168 173.975,126.098M175.996,124.3C156.457,127.616 138.519,128.039 124.32,122.442M175.122,126.101C162.379,124.096 149.977,124.438 125.427,125.514M123.293,126.084C124.611,109.421 125.011,93.761 126.648,76.948M126.287,125.708C125.37,109.09 126.589,91.49 125.53,73.794" style="fill:none;stroke:black;stroke-width:1px;"/>
    </g>
    <path d="M125.286,124.916C137.404,128.407 154.997,125.49 173.584,125.811M124.91,123.949C141.838,124.999 159.32,124.469 175.666,125.377M173.8,122.433C174.763,136.362 173.493,147.188 173.988,174.495M173.511,126.496C174.616,141.533 174.258,160.014 174.638,173.617M172.386,174.032C163.314,172.403 148.977,176.939 123.463,174.855M176.43,173.938C162.96,176.064 149.816,174.178 125.046,173.651M126.406,175.13C126.831,162.76 123.771,150.947 124.99,122.409M124.926,176.479C126.885,162.908 124.542,149.126 125.904,124.128" style="fill:none;stroke:black;stroke-width:1px;"/>
    <g>
        <path d="M127.36,175.182C126.081,175.739 125.252,176.949 125.446,177.423M127.051,174.917C126.697,175.499 125.98,176.054 125.017,177.123M132.184,176.065C131.846,175.408 128.068,177.837 123.853,184.981M132.794,175.118C131.175,176.156 128.379,179.019 124.954,184.025M136.072,176.47C135.418,178.655 129.946,183.773 125.162,190.444M137.68,176.355C132.436,179.975 128.215,185.982 124.574,189.781M139.943,177.651C135.077,182.895 132.009,188.263 126.492,197.234M141.498,174.718C138.143,182.305 130.428,187.729 124.109,194.551M147.506,172.476C143.723,182.752 133.396,192.331 122.103,203.048M149.015,174.228C139.796,184.071 131.915,195.308 125.98,201.954M151.07,175.134C145.285,184.869 138.535,191.303 124.585,210.154M152.901,174.505C141.753,187.038 130.898,201.115 123.785,208.086M161.282,173.493C149.306,186.629 139.014,198.314 126.579,212.547M158.508,173.977C148.776,186.336 140.649,197.225 124.293,215.087M164.568,173.254C151.691,193.405 132.206,211.99 125.036,221.999M163.88,174.959C153.228,187.775 141.116,201.825 125.655,218.608M169.98,173.795C162.613,188.469 152.683,196.358 124.573,223.401M169.987,174.77C155.831,192.301 142.247,207.986 125.389,226.071M174.84,175.587C160.341,190.081 147.585,204.174 132.77,226.991M175.246,173.795C165.692,184.339 155.919,196.18 131.832,224.966M172.256,182.76C168.637,188.268 156.629,199.123 136.402,222.158M174.737,180.089C167.151,192.03 160.498,200.361 137.564,226.261M177.222,187.491C165.143,195.952 156.232,205.693 141.246,227.748M174.898,187.332C166.02,195.876 158.253,206.646 141,224.528M174.121,190.863C170.537,201.479 159.141,207.441 145.939,225.491M174.276,192.649C163.764,203.868 154.137,218.105 147.905,224.904M174.928,197.629C165.039,207.536 159.983,213.682 151.803,224.94M175.502,199.725C168.263,204.188 165.468,211.59 152.966,225.577M174.387,206.121C170.902,212.238 169.373,215.388 157.783,222.083M175.223,204.657C170.329,210.474 165.796,215.273 156.65,226.056M172.329,210.455C173.845,216.805 168.145,216.199 164.697,224.265M175.765,212.064C169.58,217.195 166.639,221.306 162.196,224.164M174.128,217.394C172.312,221.107 169.78,222.659 169.635,224.316M175.124,217.301C173.072,218.797 170.924,220.905 168.253,225.543M174.729,223.609C174.498,223.932 174.354,224.818 173.644,225.119M174.954,223.596C174.583,223.694 174.356,224.329 173.707,225.062" style="fill:none;stroke:rgb(43,172,255);stroke-width:1px;"/>
        <path d="M122.686,176.87C135.22,176.952 146.814,177.008 175.921,174.404M125.232,176.461C142.506,173.798 156.699,176.342 176.257,174.823M173.306,172.727C176.956,189.889 176.404,206.556 174.337,224.538M175.129,174.737C174.735,190.794 175.372,208.678 175.613,225.288M177.74,223.286C161.741,223.91 151.736,225.825 123.221,225.24M175.244,225.073C160.574,224.288 143.381,224.251 123.969,225.275M125.433,222.628C128.279,215.235 126.174,198.759 122.75,172.2M124.092,225.305C126.221,209.473 126.383,192.883 125.637,175.498" style="fill:none;stroke:black;stroke-width:1px;"/>
    </g>
    <path d="M125.208,223.349C139.737,224.609 150.061,226.046 173.012,224.453M125.786,226.011C143.394,224.171 164.15,223.727 175.022,225.221M177.941,225.395C177.011,242.457 175.248,261.434 174.39,277.35M175.812,223.819C175.242,236.733 175.039,244.8 176.348,275.852M173.956,277.593C165.58,272.941 150.674,275.951 127.871,275.396M176.15,274.946C160.837,273.626 145.492,275.051 125.133,274.276M125.165,273.268C122.987,256.292 124.19,242.192 122.047,224.938M125.948,275.913C125.762,255.155 126.384,236.847 125.191,225.439" style="fill:none;stroke:black;stroke-width:1px;"/>
    <path d="M176.935,23.002C191.362,23.891 211.064,22.31 222.905,23.781M175.76,25.768C186.059,24.446 194.791,24.976 225.165,24.692M227.655,24.967C223.408,45.205 227.337,64.79 222.991,75.204M225.424,24.325C226.264,43.993 225.728,62.522 224.834,76.433M227.741,75.397C214.522,76.836 201.464,77.363 173.501,74.281M224.748,74.559C209.541,75.525 195.447,75.317 176.089,73.583M173.164,72.82C177.821,62.864 177.426,46.481 173.32,22.234M174.831,73.832C176.233,63.492 176.446,50.756 175.941,24.62" style="fill:none;stroke:black;stroke-width:1px;"/>
    <g>
        <path d="M177.154,75.2C176.382,75.274 176.169,76.259 174.82,77.389M177.094,74.901C176.635,75.642 176.259,76.066 174.874,77.189M183.961,74.183C180.34,76.513 177.16,80.642 173.817,83.82M182.216,75.022C180.321,77.291 178.71,78.248 174.893,82.84M185.662,73.044C182.15,77.085 179.977,82.907 172.945,87.282M188.885,75.145C183.176,77.468 181.011,82.727 173.605,89.175M195.844,76.721C186.266,83.65 176.822,93.444 175.47,93.047M194.179,73.556C185.125,83.62 179.572,91.715 174.603,95.349M198.114,72.958C191.431,84.257 183.052,93.163 176.787,103.239M196.887,75.655C190.989,82.375 184.628,90.455 174.825,100.966M204.441,72.435C193.056,89.655 182.146,99.397 173.89,106.06M202.575,74.982C194.573,84.476 187.501,92.281 173.776,107.053M208.175,76.575C197.988,88.354 192.565,95.048 176.488,111.76M207.541,75.41C199.477,87.181 189.153,97.511 174.242,114.055M212.11,72.078C199.667,93.915 184.75,108.393 174.257,118.342M213.59,74.7C205.159,83.729 197.76,94.394 173.538,120.914M220.44,76.141C204.552,88.391 194.591,102.821 173.983,124.415M218.922,75.219C207.572,88.312 197.968,99.394 176.049,124.586M222.059,72.83C210.15,95.196 190.741,110.83 181.322,123.853M223.708,73.668C209.551,89.805 197.435,105.851 182.257,124.905M224.037,81.146C214.345,95.681 202.785,106.705 187.354,126.86M225.517,81.085C217.672,89.471 208.366,98.787 185.104,125.491M222.731,88.4C212.729,99.782 206.628,108.453 190.807,125.405M223.861,88.05C217.799,97.24 207.813,108.008 190.788,124.267M222.756,91.871C219.433,98.462 213.74,108.154 198.916,123.687M224.091,92.317C214.412,104.157 204.832,117.073 197.844,124.416M227.581,101.436C217.858,110.029 210.525,118.788 204.591,122.986M225.862,98.454C218.07,108.251 212.175,115.024 203.658,124.812M223.957,102.481C219.534,107.147 213.664,114.916 205.281,125.321M225.258,106.474C220.647,108.344 216.104,114.293 206.795,126.471M227.071,112.471C219.102,114.924 216.292,117.983 212.66,125.352M225.95,110.67C221.407,115.441 217.875,121.499 212.177,124.07M224.399,116.316C225.053,120.209 223.527,119.06 217.886,124.609M225.751,116.957C222.869,118.802 222.35,121.379 219.032,125.711M224.814,123.242C224.923,123.683 224.738,124.103 223.417,124.706M224.881,123.483C224.693,123.878 224.229,124.214 223.771,124.881" style="fill:none;stroke:rgb(43,172,255);stroke-width:1px;"/>
        <path d="M175.254,76.436C192.851,76.066 207.538,77.148 225.089,74.324M176.375,76.423C186.001,73.331 195.602,73.716 225.18,74.59M226.154,73.527C226.79,86.944 226.773,96.495 225.762,127.386M224.997,74.994C224.192,88.283 225.456,103.488 225.837,124.738M227.523,123.735C210.354,122.96 187.454,123.142 175.299,127.911M225.48,126.125C205.935,126.652 186.179,126.959 174.651,126.499M174.976,127.016C174.121,104.938 175.009,87.723 172.222,72.395M175.478,124.772C175.87,110.132 174.345,93.325 174.774,74.751" style="fill:none;stroke:black;stroke-width:1px;"/>
    </g>
    <path d="M176.845,125.109C191.794,123.589 208.746,125.429 227.567,123.729M174.226,126.126C186.908,125.068 197.479,123.471 224.273,126.24M226.626,126.259C223.498,142.524 225.583,161.643 227.683,175.248M225.246,123.748C224.306,138.136 226.301,152.808 224.967,175.878M225.623,175.28C212.783,175.419 203.816,173.744 177.252,177.555M224.687,174.28C204.751,173.083 184.813,173.967 176.407,174.072M173.279,172.783C177.718,166.201 172.865,151.453 173.684,124.981M176.313,173.543C175.698,157.369 176.14,137.558 175.171,124.88" style="fill:none;stroke:black;stroke-width:1px;"/>
    <g>
        <path d="M177.103,174.984C176.249,175.627 175.821,175.822 175.287,176.98M176.996,174.882C176.584,175.819 175.542,176.333 175.111,177.23M181.125,175.119C181.552,176.963 178.55,178.866 175.571,182.163M183.006,174.7C179.487,176.751 178.066,180.338 174.711,183.474M188.894,172.593C186.265,179.742 181.31,183.861 175.466,188.732M186.945,176.269C185.036,177.539 183.277,181.036 176.204,188.763M190.801,174.036C189.285,178.726 180.889,186.143 176.903,193.383M192.109,174.557C189.14,180.233 182.292,184.897 174.705,196.452M200.102,175.168C192.954,182.732 185.192,187.545 175.262,203.64M199.615,174.978C189.342,185.669 181.146,193.051 174.94,202.4M204.688,173.088C194.323,185.817 181.916,196.679 174.554,205.48M203.183,174.213C195.341,185.487 185.741,195.146 174.03,208.082M211.819,172.327C191.978,191.999 182.234,209.072 177.679,211.292M207.38,175.603C202.204,183.648 196.082,190.089 174.982,214.935M215.757,176.814C201.881,190.445 192.796,204.173 172.317,221.851M213.883,176.431C203.265,186.862 196.841,196.028 174.158,218.607M222.265,173.612C207.348,193.65 192.019,205.533 178.611,223.012M219.294,176.428C208.096,187.963 199.371,198.336 176.609,223.723M222.395,177.089C210.508,195.767 193.718,209.742 180.541,224.779M224.243,174.673C209.738,192.759 192.381,209.264 180.985,225.312M227.377,183.587C212.181,198.807 198.66,213.219 183.968,224.788M224.043,182.272C212.672,196.609 198.358,212.366 185.149,225.785M226.562,187.509C215.035,199.585 204.218,210.687 191.102,226.831M224.283,187.095C215.231,199.264 204.717,210.49 191.614,224.014M222.459,191.982C217.382,205.471 206.609,213.483 194.973,226.301M224.741,191.84C214.499,205.162 202.801,218.3 196.305,224.802M226.213,202.03C221.795,206.67 213.043,213.667 201.047,225.426M226.311,198.24C215.132,207.944 208.378,218.317 203.17,223.591M227.841,203.892C218.024,213.366 213.544,215.192 207.532,227.283M225.8,206.662C217.636,213.676 211.102,221.435 206.775,223.687M225.803,211.075C221.472,213.325 217.626,221.579 211.1,226.862M223.757,211.482C223.191,214.265 220.852,217.887 213.439,224.98M225.056,216.161C222.269,219.639 222.33,220.231 218.67,224.574M225.013,216.917C223.944,218.72 222.905,220.994 218.972,224.67M224.923,223.72C224.393,223.61 224.166,224.316 223.88,224.851M224.993,223.361C224.527,224.07 224.047,224.474 223.523,225.135" style="fill:none;stroke:rgb(43,172,255);stroke-width:1px;"/>
        <path d="M176.395,173.863C190.148,173.635 197.065,173.982 224.566,175.898M175.933,175.147C190.123,173.774 204.404,176.609 225.327,174.918M223.535,176.826C223.566,189.233 226.059,205.869 226.876,226.311M223.841,176.496C224.993,184.323 225.655,195.739 225.502,225.738M222.663,225.265C212.544,223.57 206.48,227.889 177.19,222.553M225.211,226.497C214.103,225.073 201.531,223.393 175.455,223.773M175.046,224.515C177.62,215.811 173.224,202.179 174.643,172.854M173.83,224.034C175.35,208.911 175.731,196.323 174.154,176.273" style="fill:none;stroke:black;stroke-width:1px;"/>
    </g>
    <path d="M176.614,225.707C197.673,225.808 211.605,223.788 222.398,224.365M173.944,225.104C188.089,225.173 205.114,224.651 226.333,224.158M223.892,222.982C226.689,238.313 226.236,250.195 227.735,273.339M225.155,225.704C224.681,244.162 225.994,263.762 225.602,275.411M227.565,272.097C207.335,276.913 187.347,273.928 172.959,276.28M225.631,274.782C213.177,276.465 200.864,274.778 174.915,276.455M175.286,272.358C178.637,259.424 174.409,240.717 173.55,226.221M175.185,273.778C174.159,256.697 176.21,239.124 175.23,225.759" style="fill:none;stroke:black;stroke-width:1px;"/>
    <path d="M227.161,24.936C235.729,27.064 253.767,25.17 277.404,25.362M223.822,24.412C242.869,23.019 261.642,25.617 274.008,26.26M273.777,24.672C274.183,34.489 277.638,46.289 274.391,77.916M275.171,23.634C274.958,38.118 275.478,51.947 276.467,74.536M274.231,77.633C257.318,74.283 243.099,74.969 225.927,77.758M273.567,73.721C264.221,75.78 251.811,75.841 225.083,73.974M224.781,74.953C224.782,61.429 222.86,48.926 227.061,26.191M224.411,73.503C224.281,54.896 226.86,38.594 223.739,23.911" style="fill:none;stroke:black;stroke-width:1px;"/>
    <path d="M224.102,76.475C238.584,72.287 248.343,75.734 276.206,76.071M225.377,75.674C238.309,74.042 248.004,75.257 276.105,74.097M274.048,75.187C273.887,88.619 277.163,100.247 274.642,126.858M273.973,75.565C274.389,88.862 274.605,104.123 273.589,124.616M272.267,126.32C264.685,127.783 253.037,124.072 223.518,122.82M275.57,125.145C259.098,124.772 244.042,125.29 226.354,126.328M223.894,124.483C223.765,105.85 223.247,90.626 223.143,76.715M224.988,124.337C225.107,110.761 223.508,94.072 223.798,73.967" style="fill:none;stroke:black;stroke-width:1px;"/>
    <path d="M226.457,127.841C242.199,123.342 253.134,126.049 272.131,126.673M226.168,124.294C235.703,125.244 247.58,124.852 276.4,123.759M276.422,123.244C273.608,145.446 275.267,160.923 276.751,174.443M274.584,124.075C275.714,142.305 275.647,160.181 273.778,175.17M274.586,172.64C262.383,176.185 252.88,174.682 226.678,173.964M275.588,176.281C256.838,174.271 241.742,176.321 224.347,176.106M223.764,175.776C226.325,162.582 225.308,150.866 224.975,127.67M226.133,174.086C226.493,156.073 225.671,140.823 225.864,125.515" style="fill:none;stroke:black;stroke-width:1px;"/>
    <path d="M226.171,173.114C236.029,174.691 247.817,174.071 272.343,173.855M225.129,176.346C244.222,174.391 263.506,174.222 275.811,174.408M274.333,174.911C273.498,193.749 271.471,206.149 272.905,227.104M274.168,174.94C273.423,187.723 275.476,199.943 274.957,224.843M274.818,226.036C265.202,225.895 249.083,226.036 227.43,227.726M275.882,224.637C257.659,225.861 240.095,224.984 223.995,224.143M225.81,224.652C224.763,213.573 224.756,203.575 227.031,177.534M223.941,224.745C223.316,212.225 224.326,200.214 225.242,174.379" style="fill:none;stroke:black;stroke-width:1px;"/>
    <path d="M227.241,225.973C238.415,221.767 249.598,225.532 276.184,224.495M225.627,226.395C242.707,225.373 262.715,225.783 274.045,224.469M277.718,227.635C277.083,245.334 274.704,264.734 276.135,274.753M274.89,224.263C275.836,238.184 276.771,250.327 275.626,274.165M273.554,277.209C260.953,275.628 247.73,275.073 223.186,272.374M274.499,275.197C260.706,275.236 246.161,275.507 224.791,274.121M225.363,273.037C226.051,259.875 224.502,249.968 227.199,226.915M225.168,276.012C225.244,257.903 226.265,244.207 224.948,226.421" style="fill:none;stroke:black;stroke-width:1px;"/>
</svg>
